<svg width="1671" height="198" viewBox="0 0 1671 198" fill="none" xmlns="http://www.w3.org/2000/svg">
<path d="M136.555 35.25L131.18 79.25H182.68L178.68 109.5H127.43L121.805 154.625H189.68L185.68 186H76.9297L99.4297 3.875H207.93L203.93 35.25H136.555ZM315.719 86.875L359.469 186H322.969C320.302 186 318.219 185.333 316.719 184C315.302 182.667 314.219 181.167 313.469 179.5L286.594 112.625C286.26 113.208 285.927 113.75 285.594 114.25C285.26 114.75 284.885 115.25 284.469 115.75L244.219 179.5C242.552 181.917 240.677 183.625 238.594 184.625C236.594 185.542 234.385 186 231.969 186H191.219L259.719 88.75L220.219 3.875H257.219C259.885 3.875 261.76 4.25 262.844 4.99999C264.01 5.66666 264.969 6.83333 265.719 8.49999L289.719 66C290.552 64.4167 291.552 62.7917 292.719 61.125L324.719 9.12499C325.969 7.29166 327.26 5.95833 328.594 5.125C329.927 4.29166 331.552 3.875 333.469 3.875H376.219L315.719 86.875ZM444.816 94C450.65 94 455.525 93.1667 459.441 91.5C463.441 89.75 466.65 87.3333 469.066 84.25C471.566 81.0833 473.358 77.3333 474.441 73C475.525 68.6667 476.066 63.9167 476.066 58.75C476.066 55.1667 475.566 51.875 474.566 48.875C473.65 45.875 472.191 43.2917 470.191 41.125C468.191 38.9583 465.65 37.2917 462.566 36.125C459.566 34.875 455.983 34.25 451.816 34.25H432.566L425.191 94H444.816ZM455.816 3.875C466.65 3.875 475.9 5.20833 483.566 7.87499C491.316 10.4583 497.65 14.0833 502.566 18.75C507.566 23.3333 511.233 28.7917 513.566 35.125C515.9 41.375 517.066 48.125 517.066 55.375C517.066 65.2917 515.525 74.5 512.441 83C509.441 91.4167 504.816 98.7083 498.566 104.875C492.316 111.042 484.4 115.875 474.816 119.375C465.233 122.875 453.9 124.625 440.816 124.625H421.441L413.816 186H373.316L395.566 3.875H455.816ZM582.6 35.25L577.225 79.25H628.725L624.725 109.5H573.475L567.85 154.625H635.725L631.725 186H522.975L545.475 3.875H653.975L649.975 35.25H582.6ZM827.014 3.875L804.514 186H783.264C780.097 186 777.514 185.5 775.514 184.5C773.597 183.417 771.764 181.667 770.014 179.25L706.389 66.75C706.139 71.5833 705.764 75.9167 705.264 79.75L692.764 186H656.764L679.264 3.875H700.764C702.514 3.875 703.972 3.95833 705.139 4.12499C706.389 4.20832 707.472 4.49999 708.389 4.99999C709.305 5.41666 710.139 6.04166 710.889 6.87499C711.639 7.70832 712.43 8.79166 713.264 10.125L777.139 122.625C777.389 119.708 777.639 116.917 777.889 114.25C778.139 111.583 778.43 109.083 778.764 106.75L791.014 3.875H827.014ZM949.797 40.375C948.297 42.2917 946.839 43.75 945.422 44.75C944.005 45.6667 942.297 46.125 940.297 46.125C938.38 46.125 936.464 45.5 934.547 44.25C932.63 43 930.464 41.625 928.047 40.125C925.714 38.625 923.005 37.25 919.922 36C916.839 34.75 913.214 34.125 909.047 34.125C905.214 34.125 901.839 34.6667 898.922 35.75C896.089 36.8333 893.714 38.3333 891.797 40.25C889.88 42.1667 888.422 44.4167 887.422 47C886.505 49.5833 886.047 52.4167 886.047 55.5C886.047 58.8333 886.964 61.625 888.797 63.875C890.714 66.125 893.214 68.125 896.297 69.875C899.464 71.5417 903.005 73.0833 906.922 74.5C910.839 75.9167 914.839 77.4583 918.922 79.125C923.089 80.7917 927.13 82.7083 931.047 84.875C935.047 87.0417 938.589 89.75 941.672 93C944.839 96.25 947.339 100.167 949.172 104.75C951.089 109.333 952.047 114.833 952.047 121.25C952.047 130.417 950.464 139.042 947.297 147.125C944.13 155.208 939.589 162.292 933.672 168.375C927.755 174.375 920.547 179.167 912.047 182.75C903.63 186.25 894.13 188 883.547 188C878.297 188 873.005 187.417 867.672 186.25C862.422 185.083 857.339 183.458 852.422 181.375C847.589 179.208 843.089 176.667 838.922 173.75C834.755 170.833 831.214 167.583 828.297 164L842.797 145C843.964 143.583 845.38 142.417 847.047 141.5C848.797 140.583 850.547 140.125 852.297 140.125C854.63 140.125 856.88 140.958 859.047 142.625C861.297 144.208 863.755 146 866.422 148C869.089 149.917 872.172 151.708 875.672 153.375C879.255 154.958 883.63 155.75 888.797 155.75C896.38 155.75 902.214 153.708 906.297 149.625C910.464 145.458 912.547 139.333 912.547 131.25C912.547 127.5 911.589 124.417 909.672 122C907.839 119.583 905.38 117.542 902.297 115.875C899.297 114.208 895.839 112.75 891.922 111.5C888.005 110.167 884.005 108.75 879.922 107.25C875.839 105.75 871.839 104 867.922 102C864.005 99.9167 860.505 97.25 857.422 94C854.422 90.6667 851.964 86.625 850.047 81.875C848.214 77.0417 847.297 71.125 847.297 64.125C847.297 56.0417 848.797 48.2917 851.797 40.875C854.88 33.375 859.255 26.75 864.922 21C870.589 15.25 877.464 10.6667 885.547 7.24999C893.63 3.83332 902.714 2.12499 912.797 2.12499C917.964 2.12499 922.964 2.66666 927.797 3.74999C932.714 4.83333 937.297 6.33333 941.547 8.24999C945.797 10.1667 949.672 12.4583 953.172 15.125C956.672 17.7083 959.63 20.5417 962.047 23.625L949.797 40.375ZM1028.16 35.25L1022.78 79.25H1074.28L1070.28 109.5H1019.03L1013.41 154.625H1081.28L1077.28 186H968.531L991.031 3.875H1099.53L1095.53 35.25H1028.16Z" fill="#9D9D9D"/>
<path d="M1234.9 121.8V172.1C1227.83 177.1 1220.3 180.933 1212.3 183.6C1204.3 186.267 1195.3 187.6 1185.3 187.6C1174.1 187.6 1164.03 185.9 1155.1 182.5C1146.16 179.033 1138.53 174.167 1132.2 167.9C1125.93 161.567 1121.1 153.933 1117.7 145C1114.36 136.067 1112.7 126.133 1112.7 115.2C1112.7 104.267 1114.33 94.3667 1117.6 85.5C1120.93 76.5667 1125.66 68.9667 1131.8 62.7C1138 56.3667 1145.46 51.5 1154.2 48.1C1162.93 44.6333 1172.76 42.9 1183.7 42.9C1189.1 42.9 1194.06 43.2667 1198.6 44C1203.2 44.7333 1207.46 45.8333 1211.4 47.3C1215.33 48.7 1219 50.4667 1222.4 52.6C1225.8 54.6667 1229.06 57.0667 1232.2 59.8L1229.4 64.2C1228.46 65.8 1227.06 66.1667 1225.2 65.3C1224.2 64.9 1222.76 63.9667 1220.9 62.5C1219.03 61.0333 1216.46 59.5 1213.2 57.9C1209.93 56.3 1205.86 54.8667 1201 53.6C1196.2 52.3333 1190.33 51.7 1183.4 51.7C1174.2 51.7 1165.86 53.1667 1158.4 56.1C1151 59.0333 1144.66 63.2333 1139.4 68.7C1134.2 74.1667 1130.16 80.8333 1127.3 88.7C1124.5 96.5667 1123.1 105.4 1123.1 115.2C1123.1 125.133 1124.5 134.067 1127.3 142C1130.16 149.933 1134.26 156.667 1139.6 162.2C1145 167.733 1151.53 171.967 1159.2 174.9C1166.86 177.833 1175.5 179.3 1185.1 179.3C1189.3 179.3 1193.16 179.033 1196.7 178.5C1200.3 177.967 1203.7 177.233 1206.9 176.3C1210.16 175.3 1213.3 174.1 1216.3 172.7C1219.36 171.233 1222.46 169.6 1225.6 167.8V129.7H1198.5C1197.76 129.7 1197.13 129.467 1196.6 129C1196.13 128.533 1195.9 128 1195.9 127.4V121.8H1234.9ZM1302.5 84.9C1309.63 84.9 1316 86.1333 1321.6 88.6C1327.27 91 1332.03 94.4333 1335.9 98.9C1339.77 103.367 1342.7 108.767 1344.7 115.1C1346.77 121.367 1347.8 128.4 1347.8 136.2C1347.8 144 1346.77 151.033 1344.7 157.3C1342.7 163.567 1339.77 168.933 1335.9 173.4C1332.03 177.867 1327.27 181.3 1321.6 183.7C1316 186.1 1309.63 187.3 1302.5 187.3C1295.37 187.3 1288.97 186.1 1283.3 183.7C1277.7 181.3 1272.93 177.867 1269 173.4C1265.13 168.933 1262.17 163.567 1260.1 157.3C1258.1 151.033 1257.1 144 1257.1 136.2C1257.1 128.4 1258.1 121.367 1260.1 115.1C1262.17 108.767 1265.13 103.367 1269 98.9C1272.93 94.4333 1277.7 91 1283.3 88.6C1288.97 86.1333 1295.37 84.9 1302.5 84.9ZM1302.5 179.8C1308.43 179.8 1313.6 178.8 1318 176.8C1322.47 174.733 1326.17 171.8 1329.1 168C1332.1 164.2 1334.33 159.633 1335.8 154.3C1337.27 148.9 1338 142.867 1338 136.2C1338 129.6 1337.27 123.6 1335.8 118.2C1334.33 112.8 1332.1 108.2 1329.1 104.4C1326.17 100.533 1322.47 97.5667 1318 95.5C1313.6 93.4333 1308.43 92.4 1302.5 92.4C1296.57 92.4 1291.37 93.4333 1286.9 95.5C1282.5 97.5667 1278.8 100.533 1275.8 104.4C1272.87 108.2 1270.63 112.8 1269.1 118.2C1267.63 123.6 1266.9 129.6 1266.9 136.2C1266.9 142.867 1267.63 148.9 1269.1 154.3C1270.63 159.633 1272.87 164.2 1275.8 168C1278.8 171.8 1282.5 174.733 1286.9 176.8C1291.37 178.8 1296.57 179.8 1302.5 179.8ZM1414.02 84.9C1421.16 84.9 1427.52 86.1333 1433.12 88.6C1438.79 91 1443.56 94.4333 1447.42 98.9C1451.29 103.367 1454.22 108.767 1456.22 115.1C1458.29 121.367 1459.32 128.4 1459.32 136.2C1459.32 144 1458.29 151.033 1456.22 157.3C1454.22 163.567 1451.29 168.933 1447.42 173.4C1443.56 177.867 1438.79 181.3 1433.12 183.7C1427.52 186.1 1421.16 187.3 1414.02 187.3C1406.89 187.3 1400.49 186.1 1394.82 183.7C1389.22 181.3 1384.46 177.867 1380.52 173.4C1376.66 168.933 1373.69 163.567 1371.62 157.3C1369.62 151.033 1368.62 144 1368.62 136.2C1368.62 128.4 1369.62 121.367 1371.62 115.1C1373.69 108.767 1376.66 103.367 1380.52 98.9C1384.46 94.4333 1389.22 91 1394.82 88.6C1400.49 86.1333 1406.89 84.9 1414.02 84.9ZM1414.02 179.8C1419.96 179.8 1425.12 178.8 1429.52 176.8C1433.99 174.733 1437.69 171.8 1440.62 168C1443.62 164.2 1445.86 159.633 1447.32 154.3C1448.79 148.9 1449.52 142.867 1449.52 136.2C1449.52 129.6 1448.79 123.6 1447.32 118.2C1445.86 112.8 1443.62 108.2 1440.62 104.4C1437.69 100.533 1433.99 97.5667 1429.52 95.5C1425.12 93.4333 1419.96 92.4 1414.02 92.4C1408.09 92.4 1402.89 93.4333 1398.42 95.5C1394.02 97.5667 1390.32 100.533 1387.32 104.4C1384.39 108.2 1382.16 112.8 1380.62 118.2C1379.16 123.6 1378.42 129.6 1378.42 136.2C1378.42 142.867 1379.16 148.9 1380.62 154.3C1382.16 159.633 1384.39 164.2 1387.32 168C1390.32 171.8 1394.02 174.733 1398.42 176.8C1402.89 178.8 1408.09 179.8 1414.02 179.8ZM1540.85 98.8C1540.31 99.7333 1539.55 100.2 1538.55 100.2C1537.81 100.2 1536.88 99.8 1535.75 99C1534.61 98.1333 1533.08 97.2 1531.15 96.2C1529.28 95.1333 1526.95 94.2 1524.15 93.4C1521.35 92.5333 1517.95 92.1 1513.95 92.1C1510.35 92.1 1507.05 92.6333 1504.05 93.7C1501.11 94.7 1498.58 96.0667 1496.45 97.8C1494.38 99.5333 1492.78 101.567 1491.65 103.9C1490.51 106.167 1489.95 108.567 1489.95 111.1C1489.95 114.233 1490.75 116.833 1492.35 118.9C1493.95 120.967 1496.01 122.733 1498.55 124.2C1501.15 125.667 1504.11 126.933 1507.45 128C1510.78 129.067 1514.15 130.133 1517.55 131.2C1521.01 132.267 1524.41 133.467 1527.75 134.8C1531.08 136.067 1534.01 137.667 1536.55 139.6C1539.15 141.533 1541.25 143.9 1542.85 146.7C1544.45 149.5 1545.25 152.9 1545.25 156.9C1545.25 161.233 1544.48 165.267 1542.95 169C1541.41 172.733 1539.15 175.967 1536.15 178.7C1533.21 181.433 1529.58 183.6 1525.25 185.2C1520.91 186.8 1515.95 187.6 1510.35 187.6C1503.35 187.6 1497.31 186.5 1492.25 184.3C1487.18 182.033 1482.65 179.1 1478.65 175.5L1480.85 172.1C1481.18 171.567 1481.55 171.167 1481.95 170.9C1482.41 170.633 1483.01 170.5 1483.75 170.5C1484.61 170.5 1485.65 171.033 1486.85 172.1C1488.11 173.167 1489.78 174.333 1491.85 175.6C1493.91 176.8 1496.45 177.933 1499.45 179C1502.51 180.067 1506.28 180.6 1510.75 180.6C1514.95 180.6 1518.65 180.033 1521.85 178.9C1525.05 177.7 1527.71 176.1 1529.85 174.1C1531.98 172.1 1533.58 169.767 1534.65 167.1C1535.78 164.367 1536.35 161.5 1536.35 158.5C1536.35 155.167 1535.55 152.4 1533.95 150.2C1532.35 148 1530.25 146.133 1527.65 144.6C1525.05 143.067 1522.08 141.767 1518.75 140.7C1515.48 139.633 1512.11 138.567 1508.65 137.5C1505.18 136.433 1501.78 135.267 1498.45 134C1495.18 132.733 1492.25 131.133 1489.65 129.2C1487.05 127.267 1484.95 124.933 1483.35 122.2C1481.75 119.4 1480.95 115.933 1480.95 111.8C1480.95 108.267 1481.71 104.867 1483.25 101.6C1484.78 98.3333 1486.95 95.4667 1489.75 93C1492.61 90.5333 1496.08 88.5667 1500.15 87.1C1504.21 85.6333 1508.78 84.9 1513.85 84.9C1519.91 84.9 1525.28 85.7667 1529.95 87.5C1534.68 89.2333 1538.98 91.9 1542.85 95.5L1540.85 98.8ZM1640.91 126.2C1640.91 120.867 1640.14 116.1 1638.61 111.9C1637.14 107.633 1635.04 104.033 1632.31 101.1C1629.57 98.1667 1626.31 95.9333 1622.51 94.4C1618.77 92.8 1614.64 92 1610.11 92C1604.97 92 1600.37 92.8 1596.31 94.4C1592.24 96 1588.71 98.3 1585.71 101.3C1582.77 104.3 1580.41 107.9 1578.61 112.1C1576.81 116.3 1575.61 121 1575.01 126.2H1640.91ZM1574.51 132.3V134.2C1574.51 141.667 1575.37 148.233 1577.11 153.9C1578.84 159.567 1581.31 164.333 1584.51 168.2C1587.71 172 1591.57 174.867 1596.11 176.8C1600.64 178.733 1605.71 179.7 1611.31 179.7C1616.31 179.7 1620.64 179.167 1624.31 178.1C1627.97 176.967 1631.04 175.733 1633.51 174.4C1636.04 173 1638.04 171.767 1639.51 170.7C1640.97 169.567 1642.04 169 1642.71 169C1643.57 169 1644.24 169.333 1644.71 170L1647.31 173.2C1645.71 175.2 1643.57 177.067 1640.91 178.8C1638.31 180.533 1635.37 182.033 1632.11 183.3C1628.91 184.5 1625.44 185.467 1621.71 186.2C1618.04 186.933 1614.34 187.3 1610.61 187.3C1603.81 187.3 1597.61 186.133 1592.01 183.8C1586.41 181.4 1581.61 177.933 1577.61 173.4C1573.61 168.867 1570.51 163.333 1568.31 156.8C1566.17 150.2 1565.11 142.667 1565.11 134.2C1565.11 127.067 1566.11 120.5 1568.11 114.5C1570.17 108.433 1573.11 103.233 1576.91 98.9C1580.77 94.5 1585.47 91.0667 1591.01 88.6C1596.61 86.1333 1602.94 84.9 1610.01 84.9C1615.61 84.9 1620.81 85.8667 1625.61 87.8C1630.41 89.7333 1634.57 92.5667 1638.11 96.3C1641.64 99.9667 1644.41 104.5 1646.41 109.9C1648.47 115.3 1649.51 121.5 1649.51 128.5C1649.51 129.967 1649.31 130.967 1648.91 131.5C1648.51 132.033 1647.84 132.3 1646.91 132.3H1574.51Z" fill="#9D9D9D"/>
</svg>
